<?xml version="1.0" encoding="UTF-8"?>
<!DOCTYPE svg PUBLIC "-//W3C//DTD SVG 1.1//EN" "http://www.w3.org/Graphics/SVG/1.1/DTD/svg11.dtd">
<svg xmlns="http://www.w3.org/2000/svg" version="1.1" width="512px" height="512px" viewBox="0 0 512 512" style="shape-rendering:geometricPrecision; text-rendering:geometricPrecision; image-rendering:optimizeQuality; fill-rule:evenodd; clip-rule:evenodd" xmlns:xlink="http://www.w3.org/1999/xlink">
<g><path style="opacity:0.917" fill="#000000" d="M 86.5,3.5 C 93.918,1.79198 98.7513,4.45865 101,11.5C 101.87,17.9172 101.536,24.2506 100,30.5C 92.8657,37.5404 86.5324,36.8737 81,28.5C 80.1158,21.4183 80.4492,14.4183 82,7.5C 83.3968,5.92975 84.8968,4.59641 86.5,3.5 Z"/></g>
<g><path style="opacity:0.948" fill="#000000" d="M 351.5,3.5 C 380.77,0.253262 405.437,9.25326 425.5,30.5C 460.663,24.3321 486.496,36.9988 503,68.5C 508.452,81.4335 509.785,94.7668 507,108.5C 505.048,110.894 502.548,112.394 499.5,113C 412.456,113.989 325.456,113.656 238.5,112C 236.667,110.833 235.167,109.333 234,107.5C 233.108,74.7181 248.275,53.2181 279.5,43C 284.799,42.07 290.133,41.4034 295.5,41C 308.976,20.7609 327.643,8.26092 351.5,3.5 Z M 354.5,24.5 C 371.956,22.2859 387.622,26.4525 401.5,37C 406.554,42.0541 411.554,47.0541 416.5,52C 426.469,51.0747 436.469,50.408 446.5,50C 470.213,54.5452 483.88,68.7118 487.5,92.5C 410.164,92.8333 332.83,92.5 255.5,91.5C 264.756,69.4597 281.423,59.6264 305.5,62C 306.5,61.5 307.5,61 308.5,60.5C 316.026,46.8073 326.693,36.3073 340.5,29C 345.254,27.3583 349.921,25.8583 354.5,24.5 Z"/></g>
<g><path style="opacity:0.915" fill="#000000" d="M 25.5,18.5 C 29.5991,18.3666 33.2657,19.5333 36.5,22C 40.3689,25.5338 43.8689,29.3672 47,33.5C 48.9984,44.4995 44.4984,49.3329 33.5,48C 26.3054,43.1465 20.972,36.8132 17.5,29C 18.1675,23.8486 20.8342,20.3486 25.5,18.5 Z"/></g>
<g><path style="opacity:0.915" fill="#000000" d="M 151.5,18.5 C 161.103,19.0309 164.937,24.0309 163,33.5C 158.833,39 154,43.8333 148.5,48C 140.015,49.8427 135.015,46.5094 133.5,38C 137.288,29.3818 143.288,22.8818 151.5,18.5 Z"/></g>
<g><path style="opacity:0.944" fill="#000000" d="M 82.5,37.5 C 114.086,35.5262 134.586,49.5262 144,79.5C 148.597,108.475 137.764,129.309 111.5,142C 77.5946,152.027 53.4279,140.861 39,108.5C 32.4303,81.8645 40.2637,60.6978 62.5,45C 68.9603,41.5884 75.627,39.0884 82.5,37.5 Z M 84.5,58.5 C 103.945,56.9562 116.778,65.2895 123,83.5C 126.215,103.905 118.049,117.405 98.5,124C 77.0702,126.377 63.5702,117.21 58,96.5C 57.2819,77.0679 66.1152,64.4012 84.5,58.5 Z"/></g>
<g><path style="opacity:0.917" fill="#000000" d="M 8.5,81.5 C 15.175,81.3337 21.8417,81.5004 28.5,82C 34.3875,85.8465 35.8875,91.0132 33,97.5C 31.0478,99.8936 28.5478,101.394 25.5,102C 19.4308,102.804 13.4308,102.471 7.5,101C 0.605791,94.0239 0.939124,87.5239 8.5,81.5 Z"/></g>
<g><path style="opacity:0.915" fill="#000000" d="M 153.5,81.5 C 160.175,81.3337 166.842,81.5004 173.5,82C 179.393,85.8209 180.893,90.9875 178,97.5C 176.048,99.8936 173.548,101.394 170.5,102C 164.431,102.804 158.431,102.471 152.5,101C 147.29,96.8805 146.123,91.7138 149,85.5C 150.397,83.9297 151.897,82.5964 153.5,81.5 Z"/></g>
<g><path style="opacity:0.949" fill="#000000" d="M 511.5,470.5 C 511.5,480.833 511.5,491.167 511.5,501.5C 510.042,505.12 507.375,507.62 503.5,509C 338.167,509.667 172.833,509.667 7.5,509C 3.89071,508.375 1.22405,506.542 -0.5,503.5C -0.5,497.167 -0.5,490.833 -0.5,484.5C 4.37169,454.757 18.5384,430.423 42,411.5C 96.5302,307.603 151.697,204.103 207.5,101C 211.833,97.6667 216.167,97.6667 220.5,101C 223.037,103.906 225.204,107.073 227,110.5C 254.079,162.325 281.412,213.992 309,265.5C 311.646,262.02 314.479,258.686 317.5,255.5C 301.91,247.616 298.41,235.949 307,220.5C 325.667,193.833 344.333,167.167 363,140.5C 369,135.167 375,135.167 381,140.5C 401.057,168.892 420.724,197.559 440,226.5C 443.854,240.118 439.354,249.785 426.5,255.5C 434.853,264.685 443.02,274.019 451,283.5C 457.867,292.581 458.201,301.915 452,311.5C 449.01,314.491 445.51,316.657 441.5,318C 450.959,329.794 460.792,341.294 471,352.5C 479.012,364.03 478.179,374.864 468.5,385C 466.283,386.275 463.949,387.275 461.5,388C 489.298,408.764 505.964,436.264 511.5,470.5 Z M 213.5,132.5 C 235.853,173.367 257.853,214.533 279.5,256C 264.939,264.91 250.605,264.576 236.5,255C 231.466,250.301 226.8,245.301 222.5,240C 218.969,238.394 215.302,237.228 211.5,236.5C 207.698,237.228 204.031,238.394 200.5,240C 195.827,244.34 191.494,249.006 187.5,254C 174.961,263.393 161.628,264.727 147.5,258C 170.163,216.508 192.163,174.674 213.5,132.5 Z M 371.5,165.5 C 387.97,188.152 404.304,210.986 420.5,234C 404.833,234.333 389.167,234.667 373.5,235C 366.082,237.336 363.582,242.169 366,249.5C 367.26,252.428 369.427,254.261 372.5,255C 381.167,255.333 389.833,255.667 398.5,256C 410.598,270.188 422.931,284.188 435.5,298C 427.729,298.066 420.062,298.733 412.5,300C 409.156,303.184 407.989,307.018 409,311.5C 423.689,330.202 438.856,348.535 454.5,366.5C 399.17,367.667 343.836,367.833 288.5,367C 302.02,351.647 315.354,336.147 328.5,320.5C 344.156,319.667 359.823,319.167 375.5,319C 383.8,317.573 386.966,312.74 385,304.5C 383.833,302 382,300.167 379.5,299C 355.833,298.667 332.167,298.333 308.5,298C 322.708,282.128 336.541,265.961 350,249.5C 352.22,242.563 350.053,237.73 343.5,235C 336.833,234.667 330.167,234.333 323.5,234C 339.72,211.287 355.72,188.454 371.5,165.5 Z M 75.5,394.5 C 95.7721,355.456 116.439,316.622 137.5,278C 166.518,289.079 191.184,282.912 211.5,259.5C 231.106,282.568 255.106,288.735 283.5,278C 285.333,276.833 287.167,275.667 289,274.5C 290.914,276.748 292.414,279.248 293.5,282C 286.221,291.503 285.721,301.337 292,311.5C 294.99,314.491 298.49,316.657 302.5,318C 300.874,320.628 298.874,322.961 296.5,325C 286.361,322.217 276.028,319.884 265.5,318C 200.594,310.791 150.928,334.624 116.5,389.5C 102.64,389.75 88.9733,391.416 75.5,394.5 Z M 229.5,337.5 C 246.941,336.106 263.941,338.106 280.5,343.5C 276.475,348.358 272.642,353.358 269,358.5C 264.82,370.972 268.32,380.472 279.5,387C 300.1,388.465 320.766,388.965 341.5,388.5C 341.5,408.5 341.5,428.5 341.5,448.5C 303.832,448.333 266.165,448.5 228.5,449C 221.521,452.943 220.021,458.443 224,465.5C 225.8,467.317 227.966,468.484 230.5,469C 316.833,469.5 403.166,469.667 489.5,469.5C 490.32,475.797 490.653,482.131 490.5,488.5C 333.832,488.833 177.165,488.5 20.5,487.5C 21.4693,481.455 23.1359,475.621 25.5,470C 52.8952,469.974 80.2285,469.308 107.5,468C 112.71,463.88 113.877,458.714 111,452.5C 109.786,450.951 108.286,449.785 106.5,449C 83.1667,448.667 59.8333,448.333 36.5,448C 57.9601,420.114 86.2934,408.281 121.5,412.5C 123.942,411.964 126.275,411.131 128.5,410C 135.137,398.557 142.637,387.723 151,377.5C 172.655,355.256 198.822,341.923 229.5,337.5 Z M 362.5,388.5 C 368.833,388.5 375.167,388.5 381.5,388.5C 381.5,408.5 381.5,428.5 381.5,448.5C 375.167,448.5 368.833,448.5 362.5,448.5C 362.5,428.5 362.5,408.5 362.5,388.5 Z M 402.5,388.5 C 420.238,389.534 436.238,395.367 450.5,406C 464.871,417.368 475.871,431.368 483.5,448C 456.502,448.5 429.502,448.667 402.5,448.5C 402.5,428.5 402.5,408.5 402.5,388.5 Z"/></g>
<g><path style="opacity:0.912" fill="#000000" d="M 34.5,134.5 C 44.7803,134.391 48.9469,139.391 47,149.5C 42.8333,155 38,159.833 32.5,164C 24.0146,165.843 19.0146,162.509 17.5,154C 21.2147,145.786 26.8813,139.286 34.5,134.5 Z"/></g>
<g><path style="opacity:0.914" fill="#000000" d="M 141.5,134.5 C 145.059,134.408 148.392,135.241 151.5,137C 155.702,140.867 159.535,145.033 163,149.5C 164.998,160.5 160.498,165.333 149.5,164C 142.305,159.147 136.972,152.813 133.5,145C 134.168,139.849 136.834,136.349 141.5,134.5 Z"/></g>
<g><path style="opacity:0.918" fill="#000000" d="M 89.5,147.5 C 98.9316,148.816 102.932,154.316 101.5,164C 102.727,176.449 97.3936,181.449 85.5,179C 81.057,175.033 79.3903,170.033 80.5,164C 78.7397,155.674 81.7397,150.174 89.5,147.5 Z"/></g>
<g><path style="opacity:0.893" fill="#000000" d="M 194.5,448.5 C 204.988,447.487 209.488,452.154 208,462.5C 203.923,469.227 198.423,470.727 191.5,467C 185.722,459.725 186.722,453.558 194.5,448.5 Z"/></g>
</svg>
