<?xml version="1.0" standalone="no"?>
<!DOCTYPE svg PUBLIC "-//W3C//DTD SVG 20010904//EN"
 "http://www.w3.org/TR/2001/REC-SVG-20010904/DTD/svg10.dtd">
<svg version="1.0" xmlns="http://www.w3.org/2000/svg"
 width="512.000000pt" height="512.000000pt" viewBox="0 0 512.000000 512.000000"
 preserveAspectRatio="xMidYMid meet">

<g transform="translate(0.000000,512.000000) scale(0.100000,-0.100000)"
fill="#000000" stroke="none">
<path d="M555 5023 c-170 -23 -320 -141 -396 -313 l-24 -55 0 -430 0 -430 37
-77 c64 -134 183 -238 313 -273 l65 -18 0 -228 c0 -126 -3 -229 -6 -229 -3 0
-33 20 -65 44 -67 50 -121 64 -185 47 -38 -10 -219 -148 -272 -207 l-22 -25 0
-700 0 -700 25 -24 c24 -25 26 -25 214 -25 l190 0 15 -27 c66 -124 237 -256
395 -303 l73 -23 -33 -32 c-19 -18 -133 -124 -254 -236 -121 -111 -225 -214
-231 -228 -14 -30 -1 -77 26 -91 48 -26 63 -16 326 227 141 131 261 239 265
241 5 2 9 -93 9 -211 0 -194 2 -217 18 -238 27 -33 78 -30 109 5 23 27 23 29
23 290 l0 263 86 21 c127 31 222 82 314 169 43 40 92 96 110 123 l32 50 475 0
c447 0 474 -1 469 -17 -3 -10 -42 -191 -86 -402 -85 -397 -88 -427 -53 -475
32 -45 71 -56 190 -56 122 0 165 15 195 66 9 16 55 213 103 439 48 226 89 418
91 428 5 16 26 17 296 15 l291 -3 92 -431 c52 -244 100 -442 109 -456 29 -45
73 -58 191 -58 122 0 166 14 196 64 11 17 19 49 19 71 -1 22 -38 213 -83 425
l-83 385 479 5 479 5 19 24 c18 22 19 49 19 716 0 381 -3 701 -6 709 -9 23
-211 187 -263 214 -86 43 -140 27 -267 -77 l-85 -70 -92 75 c-156 127 -210
127 -374 -3 -47 -38 -88 -67 -92 -65 -3 2 -46 34 -94 72 -49 38 -106 75 -127
81 -55 17 -121 4 -171 -34 -23 -18 -50 -38 -60 -46 -18 -13 -19 9 -19 763 0
427 2 776 4 776 12 0 440 -537 456 -573 16 -34 20 -65 20 -169 l0 -128 -120 0
c-107 0 -122 -2 -140 -20 -25 -25 -26 -71 -1 -101 l19 -24 471 -3 c308 -2 485
1 511 8 47 13 94 51 118 94 12 24 16 55 15 136 -2 121 -23 202 -73 280 -66
103 -105 128 -708 455 l-571 310 -1 53 c0 83 -27 122 -84 122 -42 0 -66 -39
-66 -107 l0 -61 -577 -314 c-512 -278 -583 -320 -638 -373 -104 -100 -145
-204 -145 -368 0 -117 18 -162 82 -204 l42 -28 618 -3 618 -3 0 -264 c0 -146
-2 -265 -5 -265 -3 0 -29 18 -58 39 -61 46 -95 61 -143 61 -52 0 -90 -20 -188
-98 l-89 -70 -81 65 c-181 147 -226 142 -456 -53 -14 -12 -29 -3 -103 57 -97
77 -138 99 -192 99 -53 0 -90 -20 -188 -98 l-89 -71 -89 73 c-157 128 -212
128 -376 -1 -47 -38 -87 -67 -90 -66 -2 1 -45 33 -94 72 -50 39 -108 76 -129
82 -55 17 -121 4 -171 -34 -89 -68 -79 -89 -79 171 l0 230 68 21 c156 47 279
173 329 336 16 54 18 100 18 440 0 340 -2 386 -18 440 -73 238 -303 390 -542
358z m204 -179 c111 -50 183 -148 201 -271 13 -88 13 -608 0 -696 -18 -123
-90 -220 -200 -271 l-55 -26 -5 363 c-3 199 -7 363 -8 364 -48 49 -75 54 -116
22 l-26 -20 0 -360 0 -359 -22 0 c-36 0 -121 55 -166 105 -80 91 -82 105 -82
530 0 429 2 440 87 535 103 114 255 147 392 84z m2556 -1181 c-3 -10 -62 -13
-245 -13 l-240 0 0 118 c0 80 5 133 15 163 11 32 84 129 243 324 l227 278 3
-429 c1 -236 0 -435 -3 -441z m-235 823 c0 -2 -75 -96 -167 -208 -108 -133
-177 -226 -197 -268 -29 -62 -31 -72 -34 -212 l-4 -148 -272 0 c-149 0 -277 4
-285 9 -22 14 -10 183 17 244 40 90 88 123 527 362 441 241 415 227 415 221z
m1125 -269 c176 -96 338 -191 360 -210 71 -61 114 -173 115 -299 0 -57 -6 -59
-303 -56 l-272 3 -6 145 c-6 146 -16 195 -56 257 -9 15 -87 114 -172 218 -84
105 -159 196 -165 204 -12 16 13 3 499 -262z m-3751 -1374 l96 -77 -2 -480 -3
-481 -88 -5 c-116 -7 -121 -12 -114 -135 3 -49 9 -100 13 -112 6 -23 6 -23
-100 -23 l-106 0 0 619 0 619 90 76 c50 42 97 76 104 76 7 0 57 -35 110 -77z
m552 2 l94 -76 0 -354 c0 -194 3 -361 6 -370 10 -26 63 -45 93 -34 50 20 50
19 51 401 l0 357 95 77 c63 51 101 75 113 72 10 -3 57 -36 105 -74 l86 -69 0
-487 1 -488 -475 0 -475 0 1 488 0 487 91 73 c49 39 97 72 105 72 9 0 58 -34
109 -75z m1108 -1 l96 -75 0 -620 0 -619 -205 0 -205 0 0 618 0 619 96 76 c53
42 103 77 110 77 7 0 56 -34 108 -76z m551 3 l90 -73 3 -187 2 -187 -200 0
-200 0 0 185 0 184 92 76 c51 41 99 75 108 75 9 0 56 -33 105 -73z m559 -4
l96 -77 -2 -180 -3 -181 -200 0 -200 0 -3 182 -2 181 96 76 c52 42 101 76 108
76 7 0 57 -35 110 -77z m552 2 l94 -76 0 -184 0 -185 -200 0 -200 0 1 188 0
187 91 73 c50 39 98 72 106 72 8 0 57 -34 108 -75z m552 3 l91 -73 0 -187 1
-188 -200 0 -200 0 0 185 0 184 93 75 c50 42 99 76 108 76 9 0 57 -33 107 -72z
m550 -4 l92 -75 0 -620 0 -619 -200 0 -200 0 0 618 0 618 93 77 c50 42 99 76
107 76 8 1 57 -33 108 -75z m-460 -743 c2 -97 -1 -148 -9 -157 -10 -12 -172
-14 -1018 -14 -770 0 -1010 3 -1019 12 -13 13 -18 289 -5 301 3 4 466 6 1027
5 l1021 -3 3 -144z m-1678 -331 c0 -11 -38 -194 -46 -222 -5 -16 -22 -18 -170
-18 l-164 0 0 125 0 125 190 0 c122 0 190 -4 190 -10z m287 -12 c-3 -13 -61
-283 -128 -600 l-123 -578 -67 0 -67 0 8 38 c5 20 61 285 125 587 64 303 118
556 120 563 3 8 27 12 71 12 64 0 66 -1 61 -22z m592 -85 c12 -60 25 -116 27
-125 5 -17 -12 -18 -254 -18 l-259 0 26 125 26 125 206 0 206 0 22 -107z m390
-481 c69 -323 127 -593 129 -599 3 -10 -14 -13 -64 -13 l-69 0 -124 588 c-69
323 -126 593 -129 600 -3 9 14 12 64 12 l69 0 124 -588z m411 463 l0 -125
-165 0 c-91 0 -165 2 -165 4 0 3 -11 56 -25 120 -14 64 -25 118 -25 121 0 3
86 5 190 5 l190 0 0 -125z m-2774 -22 c-2 -10 -11 -43 -20 -73 -48 -170 -213
-328 -392 -374 -78 -20 -250 -21 -324 -1 -205 54 -375 233 -413 433 l-6 32
580 0 c548 0 580 -1 575 -17z"/>
<path d="M21 214 c-34 -43 -26 -86 20 -109 24 -13 277 -15 1904 -15 l1877 0
30 30 c24 25 29 36 24 58 -4 15 -16 35 -28 45 -19 16 -125 17 -1913 17 l-1894
0 -20 -26z"/>
<path d="M4100 218 c-25 -27 -26 -69 -1 -99 l19 -24 459 -3 c252 -1 468 0 481
3 32 8 62 41 62 69 0 13 -9 35 -21 50 l-20 26 -479 0 -479 0 -21 -22z"/>
</g>
</svg>
